PathFileType	4	(X/Y/Z)	Patient4_TMGait_0pt3_02_left_26.trc.trc
DataRate	CameraRate	NumFrames	NumMarkers	Units	OrigDataRate	OrigDataStartFrame	OrigNumFrames
51.094890510949	51.094890510949	5	33	mm	51.094890510949	18	       141
Frame#	Time	Sacral			L.Shoulder			Chest			R.Shoulder			Neck			R.ASIS			L.ASIS			R.Thigh.Superior			R.Thigh.Lateral			R.Thigh.Inferior			R.Patella			L.Thigh.Superior			L.Thigh.Lateral			L.Thigh.Inferior			L.Patella			L.Shank.Superior			L.Shank.Lateral			L.Shank.Inferior			R.Shank.Superior			R.Shank.Lateral			R.Shank.Inferior			R.Heel			R.Midfoot.Superior			R.Midfoot.Lateral			R.Toe			L.Heel			L.Midfoot.Lateral			L.Midfoot.Superior			L.Toe			L.Elbow			L.Wrist			R.Elbow			R.Wrist			
		X1	Y1	Z1	X2	Y2	Z2	X3	Y3	Z3	X4	Y4	Z4	X5	Y5	Z5	X6	Y6	Z6	X7	Y7	Z7	X8	Y8	Z8	X9	Y9	Z9	X10	Y10	Z10	X11	Y11	Z11	X12	Y12	Z12	X13	Y13	Z13	X14	Y14	Z14	X15	Y15	Z15	X16	Y16	Z16	X17	Y17	Z17	X18	Y18	Z18	X19	Y19	Z19	X20	Y20	Z20	X21	Y21	Z21	X22	Y22	Z22	X23	Y23	Z23	X24	Y24	Z24	X25	Y25	Z25	X26	Y26	Z26	X27	Y27	Z27	X28	Y28	Z28	X29	Y29	Z29	X30	Y30	Z30	X31	Y31	Z31	X32	Y32	Z32	X33	Y33	Z33	

18	51.272714285714	755.991372193736	996.850535696657	570.138983055343	895.959430532754	1423.377001644170	364.462309542140	1024.478654165678	1356.792096300569	506.869959051377	974.867234320781	1433.861416602540	690.823918963442	908.177281455605	1489.036067438148	520.782532944571	996.578694785787	932.346212831290	658.855609485139	952.706924817480	959.920761227178	387.224197789483	1020.456910516020	728.342575125898	615.148543016145	937.201685410754	616.412367978629	672.312800131242	1004.192270958584	566.624728976102	583.573650403188	997.644985107343	472.815045401336	584.372407113863	1033.603496000385	772.702959069398	412.092476243570	987.624728690700	648.798839897451	327.381648889068	1088.291701713870	586.861362195968	390.274724679160	1114.398700960160	519.620190525652	381.908365430722	1091.402082173097	447.782380155444	366.697793923944	1015.504599005142	327.566644493662	304.311715982526	1092.013275410588	216.931503056936	354.253129692460	951.223101937456	388.055218152578	585.873068242249	866.156156570141	293.136644997160	646.321495303703	886.181202449766	199.032599409526	573.020837600642	725.321350287110	46.852975998101	540.582835488573	900.744307674806	96.329978366277	572.595812921851	810.578907637620	38.378151148745	611.957729784202	1018.365663494619	39.779007461533	596.351067714706	990.817877068929	42.866167659160	379.144711962142	1067.849886105389	45.748365078856	302.045522250137	1143.432227404251	117.716579082189	328.618079469361	1275.429642582439	80.631870337271	305.192282023876	751.276550517399	1099.535233905920	275.598157597807	712.719815059053	843.107060263369	310.939251619198	1129.729573055178	1126.310704842193	805.739663000616	1380.045186169097	1095.062214901607	750.376333695037	
19	51.292285714286	755.889900644468	997.690593745993	570.058611681273	893.089264942789	1424.098681994843	362.923477421407	1023.569279978324	1357.145263696672	503.418915716383	976.656549321677	1434.559058769414	687.853553488443	907.667660463320	1489.411268664334	518.875254213361	996.735221278294	932.731500426907	656.952987969269	951.133053008575	960.056774508049	385.519405970128	1016.994397789762	727.704557778355	613.892182168285	932.166939705773	617.039341306922	672.030335914937	997.481360063109	566.138659883537	583.074525044029	989.472303107556	473.082421265649	583.877149771632	1031.326448559732	771.860689613731	410.393982977228	983.265018376441	647.796917352310	326.538207954558	1083.882582498885	585.541002727338	388.736555334520	1109.358806272639	518.995801762671	381.189389014119	1087.876291840956	447.320226204706	366.073959052294	1014.475452079789	325.682580932081	303.589931161906	1092.674245637443	216.602953517635	354.181897138533	943.760654771455	388.445533965781	585.765925938361	859.289223230647	293.182808317942	646.569084064461	879.582451000511	199.174834828350	573.124312544193	719.218677655115	46.430800427513	540.729561781064	894.766136952068	96.333641781985	572.804525904530	804.524727752983	38.173451844803	612.112234930827	1012.329099769124	39.921465837708	596.314136500146	994.172426358862	41.604489879711	378.916383499232	1071.616631226667	45.003605763548	302.206045038227	1146.166325653368	117.829171389642	329.036938676714	1278.715652476955	82.063723607676	306.541272538441	738.528438912433	1105.483114874854	277.045157522168	693.398556321294	850.496643444038	315.197451618796	1142.593522568702	1134.723402680869	801.942852456061	1393.591119156175	1119.725414373611	743.288429440754	
20	51.311857142857	755.912727562625	998.148313239434	569.783818083379	890.398180019133	1424.454360828161	361.107667459472	1022.706413416705	1357.207787727497	499.792908091978	978.291730924708	1434.914046008287	684.646217903848	907.217997264892	1489.458280726911	516.692200924622	997.105812171353	932.837143035384	654.837470231441	949.629759372397	959.786250572152	383.645022755607	1013.855996246629	726.872893666455	612.351239141018	927.507345181761	617.463091497714	671.497002069170	991.051646797538	565.486113647950	582.279757140881	981.559833420854	473.177542235903	583.058510293697	1029.238522264962	770.689834472360	408.455348822835	978.951152091924	646.392382461109	325.724374373640	1079.704983881068	583.999867448799	387.089448024939	1104.396913191602	517.857825473515	380.322610720552	1084.054028891029	446.276686730719	365.328522818139	1012.234340521009	323.710751720441	303.198976130675	1091.620576436472	215.815450788881	354.218524272794	936.545806036450	388.672307393601	585.416617127690	852.668633003085	293.128184696246	646.668389459020	873.045443138235	199.182747866564	573.086026905811	713.105654600724	45.938740441463	540.864763651821	888.696906623120	96.287309052237	572.930957885933	798.455683406231	37.941122534107	612.268451884594	1006.288046773468	40.066472300748	596.272043167764	994.896076112288	40.603762978637	379.225850357815	1072.414401388292	44.249746799577	302.585426491091	1146.467647732378	117.362024791544	329.478649053924	1279.192781976895	82.165644036105	307.258763929287	727.406323331262	1110.595155289302	278.426243264911	677.032913469379	856.903197165560	319.200172155588	1154.397846911779	1142.754962672109	797.803320980564	1405.129420931958	1142.915096365483	736.441070373037	
21	51.331428571429	756.050323455908	998.266283056885	569.326431026434	887.925821580749	1424.455415191785	359.010181981956	1021.928970691387	1356.996152263099	496.000172287908	979.814683917129	1434.955033762017	681.215388237041	906.862736575398	1489.210129252387	514.229740741912	997.681765126990	932.680161140881	652.515182805204	948.187368685928	959.145430709660	381.612953216400	1011.113831700074	725.880657620669	610.557812673551	923.323526547351	617.689213387076	670.718090610762	985.063040525277	564.688192694301	581.218414775872	974.094774754401	473.094065599063	581.965969677804	1027.297801051950	769.220685909056	406.267744254657	974.673514973285	644.643467135894	324.900069675449	1075.742008366290	582.270500772808	385.300589047238	1099.542520201785	516.288596454511	379.268267503064	1080.024155694764	444.740379038378	364.436592710621	1009.002444667346	321.611826532887	303.018772680767	1089.176708940395	214.563338892539	354.283678263190	929.711634286970	388.735973563460	584.850900612025	846.374059809981	293.014405130661	646.628482273527	866.635756329232	199.083392694843	572.931354525047	706.999473639570	45.445272626330	540.996239794238	882.570863822000	96.204796183547	572.989492745791	792.390169425244	37.706105333481	612.425996741822	1000.257829937863	40.193769393424	596.227649077493	993.385424433301	39.770754008755	379.874104746794	1070.752182521811	43.366781425108	303.077363270039	1144.805938414389	116.250186854540	329.919944819130	1277.411185576700	80.893025078339	307.518448839458	718.055243360807	1114.688595480746	279.659097374465	663.631408419466	862.088141488515	322.862858669107	1165.089954122841	1150.229136393365	793.343812813374	1414.817672262657	1164.317814307594	729.832775573647	
22	51.351000000000	756.289883258074	998.122627647533	568.690927443940	885.708368455834	1424.152438834655	356.636053300232	1021.276649570205	1356.554245482059	492.050532662629	981.278652444722	1434.737838273289	677.577708064300	906.633253936522	1488.730054397252	511.489617898504	998.441983559345	932.303684533135	649.989591848041	946.796261838167	958.209537542827	379.428164651633	1008.814462359283	724.779404097707	608.548034955913	919.686333251665	617.744988526636	669.703007713566	979.651705543101	563.782337230419	579.928786151478	967.244158880361	472.844354025504	580.662653390018	1025.472472900903	767.528773780205	403.829684950033	970.456831542540	642.652907935204	324.015591260941	1071.995392748412	580.417646439347	383.343311082349	1094.848974419029	514.412598116027	377.997756689523	1075.903180183252	442.848027387741	363.381520305897	1005.056945948836	319.412360103823	302.922665001286	1085.704603991644	212.920198105385	354.305429198419	923.370627015486	388.655438216961	584.105081164009	840.463585134389	292.897825386834	646.463175234590	860.414368890488	198.918272513692	572.693229004173	700.917918689970	45.028775089637	541.135649421768	876.431004618652	96.104758337769	573.003172853117	786.347387867600	37.497142024685	612.585612453230	994.253545712192	40.282956636514	596.184842761361	990.099399355631	39.077429822125	380.672190793239	1067.198442267616	42.320658598206	303.589587085063	1141.681372706411	114.534011091939	330.342670535214	1273.947527295791	78.349662977518	307.507298206991	710.567685167781	1117.655002248103	280.661633371433	653.156698564380	865.918378005336	326.096792958878	1174.649259975486	1157.007924307719	788.596082500720	1422.840204714521	1183.694620124571	723.440404120816	
